<?xml version="1.0" encoding="utf-8"?>
<!-- Generator: Adobe Illustrator 27.5.0, SVG Export Plug-In . SVG Version: 6.00 Build 0)  -->
<svg version="1.1" id="BASE" xmlns="http://www.w3.org/2000/svg" xmlns:xlink="http://www.w3.org/1999/xlink" x="0px" y="0px"
	 viewBox="0 0 2279 1975" style="enable-background:new 0 0 2279 1975;" xml:space="preserve">
<path style="fill:#005BA8;" d="M1228.442,1279.243c35.142-35.206-36.217-164.984-163.064-304.525
	c-1.491-1.641-2.988-3.283-4.494-4.926c-1.021-1.114-2.045-2.228-3.073-3.342c-2.088-2.264-4.19-4.53-6.308-6.798
	c-0.48-0.514-0.96-1.027-1.441-1.541c-8.16-8.721-16.527-17.467-25.088-26.217c-0.897-0.916-1.796-1.833-2.696-2.75
	c-0.63-0.64-1.26-1.281-1.892-1.921c-1.211-1.229-2.427-2.459-3.646-3.687c-0.009-0.009-0.019-0.019-0.029-0.029
	c-1.228-1.238-2.462-2.476-3.698-3.715c-0.621-0.621-1.242-1.244-1.864-1.864l-0.007-0.006c-1.015-1.013-2.03-2.024-3.045-3.032
	c-0.313-0.311-0.627-0.622-0.94-0.932c-0.973-0.964-1.947-1.927-2.919-2.888c-0.025-0.025-0.051-0.05-0.076-0.075
	c-1.094-1.079-2.189-2.155-3.283-3.228c-0.155-0.154-0.311-0.307-0.468-0.46c-1.009-0.989-2.016-1.974-3.025-2.958l-0.256-0.25
	c-1.084-1.056-2.167-2.109-3.25-3.16c-0.14-0.135-0.279-0.271-0.419-0.405c-1.056-1.023-2.11-2.042-3.166-3.059
	c-0.033-0.032-0.065-0.063-0.097-0.094c-2.258-2.175-4.513-4.337-6.771-6.486c-0.093-0.089-0.187-0.178-0.281-0.267
	c-2.261-2.153-4.521-4.293-6.78-6.419c-0.039-0.035-0.076-0.072-0.114-0.107c-4.609-4.337-9.212-8.617-13.807-12.838l-0.075-0.069
	c-3.379-3.105-6.755-6.177-10.124-9.218c-0.114-0.102-0.227-0.205-0.34-0.308c-1.06-0.957-2.12-1.909-3.178-2.859
	c-0.165-0.148-0.331-0.296-0.496-0.445c-0.9-0.806-1.8-1.611-2.699-2.412c-0.234-0.209-0.468-0.418-0.703-0.628
	c-0.976-0.869-1.951-1.735-2.925-2.598c-0.344-0.305-0.687-0.608-1.03-0.912c-0.617-0.546-1.235-1.091-1.853-1.636
	c-0.51-0.45-1.022-0.9-1.532-1.349c-0.365-0.321-0.731-0.641-1.096-0.961c-1.269-1.114-2.538-2.225-3.806-3.328
	c-0.028-0.026-0.058-0.052-0.089-0.078c-6.031-5.256-12.038-10.403-18.01-15.434c34.248-20.807,57.125-58.464,57.125-101.465
	c0-65.521-53.116-118.637-118.637-118.637c-59.081,0-108.073,43.188-117.134,99.714c-1.306-0.581-2.601-1.147-3.886-1.7
	l-0.027-0.012c-31.341-13.461-56.409-18.034-72.372-12.025c-3.978,1.452-7.342,3.589-10.128,6.379
	c-2.784,2.789-4.879,6.192-6.359,10.138l-371.996,372.674c-137.329,137.579-155.956,348.809-55.853,506.365
	c15.839,24.922,34.608,48.501,56.379,70.232c159.349,159.06,417.537,158.825,576.597-0.525l379.749-380.441
	C1228.112,1279.568,1228.278,1279.407,1228.442,1279.243z"/>
<path style="fill:#005BA8;" d="M2087.563,435.581c-13.145-27.811-29.041-53.415-47.185-76.712
	c-114.723-147.254-319.915-200.74-495.661-117.669l-476.06,225.019c-4.214,0.066-8.124,0.896-11.688,2.58
	c-3.563,1.685-6.708,4.134-9.412,7.394c-11.443,13.504-15.452,40.072-12.744,76.088c0.004,0.042,0.006,0.084,0.011,0.126
	c0.03,0.4,0.062,0.802,0.093,1.203l0.022,0.271c0.03,0.38,0.06,0.76,0.093,1.142c0.015,0.174,0.029,0.349,0.044,0.523
	c0.045,0.527,0.092,1.057,0.139,1.59c0.025,0.273,0.048,0.548,0.075,0.823c0.024,0.253,0.047,0.508,0.071,0.761
	c0.028,0.314,0.06,0.629,0.09,0.945c0.021,0.214,0.042,0.43,0.063,0.645c0.109,1.1,0.222,2.208,0.342,3.323l0.035,0.316
	c0.054,0.505,0.11,1.01,0.167,1.518c0.008,0.077,0.017,0.153,0.025,0.229c0.093,0.821,0.19,1.647,0.288,2.476
	c0.026,0.211,0.051,0.421,0.076,0.631c0.092,0.764,0.186,1.529,0.284,2.299c0.034,0.275,0.069,0.552,0.106,0.828
	c0.068,0.535,0.138,1.073,0.209,1.612c0.067,0.506,0.135,1.014,0.204,1.523c0.064,0.479,0.131,0.959,0.196,1.441
	c0.064,0.459,0.129,0.919,0.194,1.381c0.033,0.223,0.065,0.45,0.097,0.674c0.133,0.925,0.268,1.856,0.408,2.791
	c0.025,0.161,0.05,0.324,0.074,0.486c0.148,0.984,0.301,1.973,0.455,2.966c0.034,0.21,0.068,0.422,0.101,0.633
	c0.131,0.826,0.263,1.656,0.399,2.489c0.029,0.172,0.057,0.347,0.085,0.521c0.152,0.921,0.305,1.846,0.463,2.776
	c0.012,0.074,0.025,0.148,0.038,0.222c0.161,0.949,0.326,1.902,0.493,2.859c0.017,0.092,0.033,0.184,0.048,0.276
	c0.156,0.883,0.314,1.769,0.474,2.659c0.015,0.077,0.029,0.155,0.043,0.233c9.083,50.197,27.058,111.549,52.762,178.215
	c0.032,0.08,0.063,0.162,0.094,0.243c0.683,1.767,1.369,3.539,2.061,5.314c0.049,0.126,0.099,0.253,0.148,0.379
	c0.733,1.875,1.469,3.754,2.214,5.637c0.174,0.441,0.348,0.882,0.524,1.323c0.267,0.673,0.535,1.346,0.803,2.02
	c0.262,0.659,0.525,1.318,0.789,1.979c0.229,0.573,0.458,1.147,0.688,1.721c0.492,1.225,0.985,2.451,1.481,3.679
	c0.05,0.123,0.098,0.245,0.148,0.367c0.75,1.852,1.504,3.706,2.265,5.564c0.046,0.113,0.092,0.225,0.137,0.338
	c0.758,1.849,1.52,3.701,2.287,5.556c0.052,0.126,0.106,0.253,0.158,0.38c0.717,1.731,1.44,3.465,2.167,5.201
	c0.116,0.279,0.233,0.558,0.351,0.837c0.72,1.717,1.445,3.436,2.174,5.158c0.128,0.302,0.256,0.604,0.384,0.906
	c0.738,1.743,1.482,3.488,2.232,5.235c0.097,0.228,0.195,0.457,0.293,0.686c0.756,1.761,1.517,3.525,2.282,5.292
	c0.09,0.207,0.181,0.414,0.27,0.621c0.752,1.735,1.51,3.473,2.273,5.213l0.341,0.781c0.785,1.789,1.574,3.579,2.368,5.372
	c0.099,0.224,0.199,0.448,0.298,0.672c0.808,1.819,1.618,3.641,2.436,5.465c0.088,0.196,0.176,0.392,0.265,0.589
	c0.813,1.818,1.634,3.637,2.459,5.458c0.076,0.168,0.152,0.335,0.228,0.503c0.866,1.913,1.739,3.827,2.617,5.744
	c0.02,0.043,0.039,0.086,0.057,0.128c0.898,1.959,1.801,3.921,2.71,5.884c0.048,0.104,0.095,0.208,0.144,0.313
	c0.896,1.934,1.796,3.871,2.703,5.81l0.145,0.31c0.927,1.978,1.856,3.958,2.793,5.94c96.543,204.25,216.171,350.262,267.21,326.137
	c0.208-0.098,0.413-0.199,0.619-0.302l485.986-229.712C2096.739,882.211,2183.778,639.137,2087.563,435.581z"/>
<ellipse transform="matrix(0.1912 -0.9815 0.9815 0.1912 -16.8281 993.1047)" style="fill:#005BA8;" cx="594.211" cy="506.764" rx="158.328" ry="158.327"/>
<ellipse transform="matrix(0.9595 -0.2816 0.2816 0.9595 -308.5325 474.798)" style="fill:#005BA8;" cx="1497.721" cy="1310.891" rx="99.844" ry="99.844"/>
<ellipse transform="matrix(0.9847 -0.174 0.174 0.9847 -230.552 244.7982)" style="fill:#005BA8;" cx="1280.735" cy="1437.168" rx="118.636" ry="118.637"/>
<ellipse transform="matrix(0.7071 -0.7071 0.7071 0.7071 21.3573 748.4332)" style="fill:#005BA8;" cx="914.117" cy="348.436" rx="153.437" ry="153.438"/>
<path style="fill:#004899;" d="M1399.284,1141.11c0.008-0.205,0.016-0.411,0.022-0.617c0.006-0.219,0.013-0.44,0.019-0.661
	c0.004-0.153,0.007-0.306,0.011-0.461c0.021-0.952,0.03-1.923,0.027-2.915v-0.092c-0.172-58.707-40.835-186.09-107.125-326.331
	c-80.268-169.82-169.819-298.658-208.825-303.148c-2.937-0.333-5.591,0.011-7.923,1.114c-2.333,1.103-4.304,2.894-5.892,5.416
	c-21.34,32.963,21.37,183.942,101.659,353.802c61.413,129.928,128.259,235.854,173.755,280.469c0,0,0,0,0,0
	c0.266,0.261,0.532,0.519,0.796,0.776c0.087,0.086,0.175,0.169,0.263,0.254c0.222,0.216,0.447,0.431,0.668,0.643
	c0.101,0.096,0.2,0.191,0.3,0.286c0.363,0.347,0.726,0.689,1.086,1.028c0.165,0.153,0.328,0.308,0.492,0.46
	c0.154,0.143,0.306,0.285,0.46,0.427c0.169,0.156,0.339,0.313,0.508,0.468c0.158,0.146,0.316,0.291,0.475,0.436
	c0.193,0.175,0.386,0.35,0.578,0.523c0.13,0.116,0.259,0.234,0.387,0.35c0.319,0.287,0.637,0.57,0.953,0.849
	c0.054,0.046,0.108,0.094,0.16,0.14c0.238,0.21,0.476,0.416,0.712,0.622c0.092,0.079,0.185,0.159,0.275,0.239
	c0.245,0.211,0.489,0.42,0.731,0.627c0.062,0.052,0.122,0.104,0.184,0.156c0.252,0.215,0.505,0.429,0.756,0.639
	c0.042,0.035,0.083,0.069,0.124,0.103c0.439,0.367,0.877,0.726,1.311,1.079c0.138,0.112,0.276,0.226,0.415,0.337
	c0.164,0.132,0.328,0.262,0.489,0.391c0.178,0.141,0.355,0.281,0.532,0.42c0.149,0.118,0.298,0.236,0.448,0.352
	c0.192,0.149,0.383,0.296,0.574,0.442c0.127,0.098,0.255,0.198,0.384,0.294c0.319,0.243,0.635,0.483,0.952,0.717
	c0.089,0.065,0.178,0.132,0.267,0.198c0.245,0.18,0.489,0.358,0.732,0.533c0.098,0.07,0.195,0.139,0.292,0.209
	c0.246,0.176,0.491,0.351,0.735,0.521c0.068,0.049,0.136,0.096,0.206,0.144c0.792,0.551,1.571,1.074,2.343,1.571
	c0.118,0.077,0.239,0.154,0.356,0.23c0.198,0.125,0.396,0.249,0.592,0.37c0.14,0.087,0.28,0.175,0.421,0.26
	c0.183,0.113,0.367,0.224,0.548,0.333c0.151,0.09,0.302,0.179,0.451,0.267c0.178,0.104,0.356,0.209,0.533,0.31
	c0.169,0.097,0.335,0.19,0.502,0.282c0.19,0.107,0.378,0.213,0.567,0.315c0.269,0.147,0.536,0.29,0.803,0.43
	c0.129,0.068,0.257,0.132,0.385,0.197c0.189,0.097,0.377,0.192,0.564,0.285c0.14,0.069,0.281,0.137,0.422,0.205
	c0.183,0.089,0.365,0.175,0.546,0.259c0.129,0.06,0.258,0.12,0.387,0.178c0.2,0.092,0.4,0.18,0.601,0.266
	c0.106,0.047,0.212,0.094,0.318,0.139c0.306,0.13,0.61,0.255,0.911,0.374l0.013,0.005c0.699,0.274,1.385,0.52,2.061,0.735
	c0.225,0.071,0.448,0.139,0.671,0.204c0.016,0.004,0.033,0.009,0.049,0.014c0.291,0.084,0.578,0.162,0.865,0.236
	c0.005,0.001,0.01,0.003,0.017,0.004c0.576,0.145,1.142,0.267,1.698,0.366c0.017,0.003,0.035,0.006,0.054,0.009
	c0.266,0.046,0.53,0.087,0.792,0.122c0.026,0.004,0.053,0.008,0.079,0.01c0.531,0.07,1.052,0.117,1.563,0.141l0.061,0.003
	c0.251,0.011,0.499,0.016,0.745,0.016h0.073c0.251-0.001,0.498-0.007,0.744-0.019c0.004-0.001,0.006-0.001,0.011-0.002
	c0.251-0.013,0.499-0.032,0.745-0.057c0.008,0,0.016-0.002,0.022-0.002c0.235-0.024,0.466-0.054,0.696-0.089
	c0.033-0.005,0.065-0.011,0.097-0.016c0.228-0.037,0.454-0.079,0.678-0.126l0.043-0.01c0.46-0.1,0.911-0.223,1.351-0.37
	c0.028-0.009,0.055-0.018,0.082-0.027c0.213-0.072,0.424-0.151,0.633-0.234c0.018-0.006,0.034-0.015,0.052-0.021
	c0.215-0.088,0.429-0.181,0.64-0.28c0.203-0.095,0.403-0.198,0.601-0.304c0.021-0.012,0.042-0.024,0.064-0.035
	c0.195-0.107,0.386-0.219,0.576-0.335c0.016-0.01,0.032-0.02,0.047-0.03c0.382-0.239,0.752-0.498,1.111-0.779
	c0.026-0.02,0.05-0.039,0.074-0.058c0.172-0.137,0.341-0.277,0.508-0.423c0.021-0.018,0.04-0.036,0.061-0.054
	c0.344-0.306,0.678-0.631,1-0.978c0.018-0.019,0.036-0.037,0.054-0.057c0.159-0.174,0.318-0.352,0.472-0.536
	c0.01-0.012,0.021-0.025,0.032-0.039c0.318-0.38,0.624-0.782,0.92-1.206c0.009-0.013,0.019-0.027,0.029-0.042
	c0.149-0.214,0.294-0.433,0.437-0.658c0,0,0.001-0.001,0.001-0.001c0.291-0.461,0.571-0.943,0.838-1.448
	c0.003-0.007,0.008-0.015,0.012-0.022c0.136-0.258,0.268-0.524,0.399-0.795c0.042-0.088,0.084-0.178,0.125-0.268
	c0.085-0.183,0.17-0.368,0.252-0.555c0.048-0.113,0.098-0.226,0.147-0.341c0.072-0.172,0.144-0.346,0.214-0.521
	c0.051-0.125,0.101-0.25,0.151-0.378c0.066-0.175,0.132-0.354,0.197-0.533c0.046-0.126,0.093-0.249,0.139-0.378
	c0.1-0.284,0.195-0.572,0.289-0.864c0.052-0.161,0.102-0.326,0.152-0.489c0.047-0.154,0.094-0.309,0.141-0.466
	c0.055-0.188,0.107-0.378,0.161-0.57c0.035-0.127,0.069-0.255,0.103-0.383c0.056-0.211,0.113-0.422,0.164-0.637
	c0.029-0.112,0.055-0.226,0.083-0.338c0.205-0.848,0.394-1.724,0.563-2.635c0.001-0.006,0.001-0.012,0.003-0.017
	c0.055-0.297,0.107-0.599,0.158-0.904c0.012-0.063,0.023-0.127,0.033-0.19c0.052-0.308,0.101-0.617,0.147-0.931
	c0.004-0.029,0.009-0.057,0.013-0.085c0.053-0.35,0.101-0.706,0.148-1.067c0.02-0.148,0.038-0.299,0.057-0.449
	c0.026-0.215,0.052-0.43,0.077-0.647c0.023-0.185,0.042-0.371,0.063-0.559c0.018-0.174,0.036-0.349,0.054-0.524
	c0.021-0.208,0.043-0.415,0.063-0.625c0.01-0.119,0.02-0.241,0.032-0.361c0.047-0.55,0.091-1.107,0.131-1.674
	c0.003-0.037,0.005-0.075,0.008-0.113c0.021-0.31,0.041-0.623,0.058-0.938c0.004-0.062,0.008-0.122,0.01-0.184
	c0.021-0.377,0.04-0.758,0.055-1.141C1399.271,1141.484,1399.277,1141.297,1399.284,1141.11z"/>
<path style="fill:#20325C;" d="M1395.649,1160.614c0.048-0.113,0.098-0.226,0.147-0.341c0.072-0.172,0.144-0.346,0.214-0.521
	c0.051-0.125,0.101-0.25,0.151-0.378c0.066-0.175,0.132-0.354,0.197-0.533c0.046-0.126,0.093-0.249,0.139-0.378
	c0.1-0.284,0.195-0.572,0.289-0.864c0.052-0.161,0.102-0.326,0.152-0.489c0.047-0.154,0.094-0.309,0.141-0.466
	c0.055-0.188,0.107-0.378,0.161-0.57c0.035-0.127,0.069-0.255,0.103-0.383c0.056-0.211,0.113-0.422,0.164-0.637
	c0.029-0.112,0.055-0.226,0.083-0.338c0.205-0.848,0.394-1.724,0.563-2.635c0.001-0.006,0.001-0.012,0.003-0.017
	c0.055-0.297,0.107-0.599,0.158-0.904c0.012-0.063,0.023-0.127,0.033-0.19c0.052-0.308,0.101-0.617,0.147-0.931
	c0.004-0.029,0.009-0.057,0.013-0.085c5.94-40.128-19.24-134.987-65.945-248.669c-28.571,15.308-58.501,28.113-89.429,37.515
	c-10.365,3.151-21.025,6.032-31.829,8.409c56.384,106.34,112.509,186.654,148.72,213.538c0.089,0.065,0.178,0.132,0.267,0.198
	c0.245,0.18,0.489,0.358,0.732,0.533c0.098,0.07,0.195,0.139,0.292,0.209c0.246,0.176,0.491,0.351,0.735,0.521
	c0.068,0.049,0.136,0.096,0.206,0.144c0.792,0.551,1.571,1.074,2.343,1.571c0.118,0.077,0.239,0.154,0.356,0.23
	c0.198,0.125,0.396,0.249,0.592,0.37c0.14,0.087,0.28,0.175,0.421,0.26c0.183,0.113,0.367,0.224,0.548,0.333
	c0.151,0.09,0.302,0.179,0.451,0.267c0.178,0.104,0.356,0.209,0.533,0.31c0.169,0.097,0.335,0.19,0.502,0.282
	c0.19,0.107,0.378,0.213,0.567,0.315c0.269,0.147,0.536,0.29,0.803,0.43c0.129,0.068,0.257,0.132,0.385,0.197
	c0.189,0.097,0.377,0.192,0.564,0.285c0.14,0.069,0.281,0.137,0.422,0.205c0.183,0.089,0.365,0.175,0.546,0.259
	c0.129,0.06,0.258,0.12,0.387,0.178c0.2,0.092,0.4,0.18,0.601,0.266c0.106,0.047,0.212,0.094,0.318,0.139
	c0.306,0.13,0.61,0.255,0.911,0.374l0.013,0.005c0.699,0.274,1.385,0.52,2.061,0.735c0.225,0.071,0.448,0.139,0.671,0.204
	c0.016,0.004,0.033,0.009,0.049,0.014c0.291,0.084,0.578,0.162,0.865,0.236c0.005,0.001,0.01,0.003,0.017,0.004
	c0.576,0.145,1.142,0.267,1.698,0.366c0.017,0.003,0.035,0.006,0.054,0.009c0.266,0.046,0.53,0.087,0.792,0.122
	c0.026,0.004,0.053,0.008,0.079,0.01c0.531,0.07,1.052,0.117,1.563,0.141l0.061,0.003c0.251,0.011,0.499,0.016,0.745,0.016h0.073
	c0.251-0.001,0.498-0.007,0.744-0.019c0.004-0.001,0.006-0.001,0.011-0.002c0.251-0.013,0.499-0.032,0.745-0.057
	c0.008,0,0.016-0.002,0.022-0.002c0.235-0.024,0.466-0.054,0.696-0.089c0.033-0.005,0.065-0.011,0.097-0.016
	c0.228-0.037,0.454-0.079,0.678-0.126l0.043-0.01c0.46-0.1,0.911-0.223,1.351-0.37c0.028-0.009,0.055-0.018,0.082-0.027
	c0.213-0.072,0.424-0.151,0.633-0.234c0.018-0.006,0.034-0.015,0.052-0.021c0.215-0.088,0.429-0.181,0.64-0.28
	c0.203-0.095,0.403-0.198,0.601-0.304c0.021-0.012,0.042-0.024,0.064-0.035c0.195-0.107,0.386-0.219,0.576-0.335
	c0.016-0.01,0.032-0.02,0.047-0.03c0.382-0.239,0.752-0.498,1.111-0.779c0.026-0.02,0.05-0.039,0.074-0.058
	c0.172-0.137,0.341-0.277,0.508-0.423c0.021-0.018,0.04-0.036,0.061-0.054c0.344-0.306,0.678-0.631,1-0.978
	c0.018-0.019,0.036-0.037,0.054-0.057c0.159-0.174,0.318-0.352,0.472-0.536c0.01-0.012,0.021-0.025,0.032-0.039
	c0.318-0.38,0.624-0.782,0.92-1.206c0.009-0.013,0.019-0.027,0.029-0.042c0.149-0.214,0.294-0.433,0.437-0.658
	c0,0,0.001-0.001,0.001-0.001c0.291-0.461,0.571-0.943,0.838-1.448c0.003-0.007,0.008-0.015,0.012-0.022
	c0.136-0.258,0.268-0.524,0.399-0.795c0.042-0.088,0.084-0.178,0.125-0.268C1395.482,1160.986,1395.567,1160.801,1395.649,1160.614z
	"/>
<path style="fill:#E30613;" d="M1051.502,959.651c-0.48-0.514-0.96-1.027-1.441-1.541c-8.16-8.721-16.527-17.467-25.088-26.217
	c-0.897-0.916-1.796-1.833-2.696-2.75c-0.63-0.64-1.26-1.281-1.892-1.921c-1.211-1.229-2.427-2.459-3.646-3.687
	c-0.009-0.009-0.019-0.019-0.029-0.029c-1.228-1.238-2.462-2.476-3.698-3.715c-0.621-0.621-1.242-1.244-1.864-1.864l-0.007-0.006
	c-1.015-1.013-2.03-2.024-3.045-3.032c-0.313-0.311-0.627-0.622-0.94-0.932c-0.973-0.964-1.947-1.927-2.919-2.888
	c-0.025-0.025-0.051-0.05-0.076-0.075c-1.094-1.079-2.189-2.155-3.283-3.228c-0.155-0.154-0.311-0.307-0.468-0.46
	c-1.009-0.989-2.016-1.974-3.025-2.958l-0.256-0.25c-1.084-1.056-2.167-2.109-3.25-3.16c-0.14-0.135-0.279-0.271-0.419-0.405
	c-1.056-1.023-2.11-2.042-3.166-3.059c-0.033-0.032-0.065-0.063-0.097-0.094c-2.258-2.175-4.513-4.337-6.771-6.486
	c-0.093-0.089-0.187-0.178-0.281-0.267c-2.261-2.153-4.521-4.293-6.78-6.419c-0.039-0.035-0.076-0.072-0.114-0.107
	c-4.609-4.337-9.212-8.617-13.807-12.838l-0.075-0.069c-3.379-3.105-6.755-6.177-10.124-9.218c-0.114-0.102-0.227-0.205-0.34-0.308
	c-1.06-0.957-2.12-1.909-3.178-2.859c-0.165-0.148-0.331-0.296-0.496-0.445c-0.9-0.806-1.8-1.611-2.699-2.412
	c-0.234-0.209-0.468-0.418-0.703-0.628c-0.976-0.869-1.951-1.735-2.925-2.598c-0.344-0.305-0.687-0.608-1.03-0.912
	c-0.617-0.546-1.235-1.091-1.853-1.636c-0.51-0.45-1.022-0.9-1.532-1.349c-0.365-0.321-0.731-0.641-1.096-0.961
	c-1.269-1.114-2.538-2.225-3.806-3.328c-0.028-0.026-0.058-0.052-0.089-0.078c-6.034-5.256-12.041-10.401-18.014-15.431
	c-10.908,6.627-22.971,11.542-35.815,14.378c-8.273,1.827-16.87,2.792-25.692,2.792c-60.944,0-111.153-45.952-117.873-105.098
	c-0.505-4.443-0.764-8.961-0.764-13.539c0-6.44,0.516-12.759,1.502-18.92c0,0,0.002-0.002,0.002-0.003
	c-1.306-0.581-2.601-1.147-3.886-1.7l-0.027-0.012c-31.341-13.461-56.409-18.034-72.372-12.025
	c-3.978,1.452-7.342,3.589-10.128,6.379c-2.784,2.789-4.879,6.192-6.359,10.138l-371.996,372.674
	c-137.329,137.579-155.956,348.809-55.853,506.365c15.839,24.922,34.608,48.501,56.379,70.232
	c159.349,159.06,417.537,158.825,576.597-0.525l379.749-380.441l0.491-0.491C1264.839,1242.767,1186.961,1104.814,1051.502,959.651z
	 M865.022,1270.336c-55.142,0-99.844-44.701-99.844-99.843c0-55.143,44.701-99.844,99.844-99.844c3.527,0,7.01,0.184,10.443,0.541
	c43.773,4.55,79.139,37.379,87.514,79.899c1.236,6.277,1.887,12.765,1.887,19.404
	C964.866,1225.635,920.165,1270.336,865.022,1270.336z"/>
<path style="fill:#E7364B;" d="M735.118,912.984l0.023-0.024c-23.958-31.618-43.978-61.538-59.344-88.557
	c-0.214-0.377-0.428-0.753-0.64-1.129c-0.203-0.359-0.406-0.717-0.607-1.074c-0.409-0.728-0.816-1.455-1.219-2.179
	c-0.11-0.198-0.219-0.394-0.327-0.592c-0.391-0.705-0.78-1.409-1.164-2.11c-0.06-0.109-0.121-0.218-0.181-0.328
	c-0.466-0.849-0.927-1.697-1.381-2.541c-0.026-0.049-0.053-0.098-0.08-0.148c-24.622-45.616-34.925-82.018-27.129-102.881
	l-371.996,372.674c-137.329,137.579-155.956,348.809-55.853,506.365c19.328-118.036,74.489-231.257,165.392-322.325L735.118,912.984
	z"/>
<path style="fill:#B90E0C;" d="M1202.078,1235.166c-0.004-0.171-0.01-0.346-0.016-0.518c-0.006-0.196-0.014-0.391-0.024-0.59
	c-0.01-0.19-0.022-0.382-0.034-0.576c-0.013-0.191-0.026-0.384-0.042-0.578c-0.016-0.196-0.032-0.393-0.051-0.593
	c-0.017-0.192-0.038-0.388-0.058-0.583c-0.024-0.21-0.044-0.419-0.071-0.632c-0.02-0.165-0.043-0.331-0.065-0.497
	c-0.123-0.946-0.278-1.92-0.465-2.919c-0.013-0.071-0.025-0.14-0.038-0.211c-0.06-0.315-0.125-0.636-0.192-0.957
	c-0.022-0.111-0.045-0.222-0.068-0.335c-0.066-0.313-0.137-0.63-0.209-0.949c-0.028-0.117-0.054-0.235-0.081-0.354
	c-0.076-0.328-0.154-0.659-0.237-0.992l-0.078-0.316c-0.089-0.353-0.179-0.707-0.275-1.065l-0.047-0.173
	c-0.101-0.375-0.205-0.754-0.313-1.136c-0.042-0.146-0.085-0.293-0.127-0.439c-0.066-0.231-0.133-0.462-0.202-0.695
	c-0.057-0.193-0.118-0.389-0.177-0.585c-0.054-0.178-0.108-0.356-0.164-0.534c-0.071-0.23-0.144-0.461-0.217-0.693
	c-0.045-0.142-0.092-0.285-0.137-0.428c-0.082-0.254-0.164-0.509-0.248-0.765c-0.028-0.087-0.06-0.176-0.089-0.263
	c-0.34-1.022-0.701-2.063-1.088-3.122l-0.006-0.019c-0.127-0.352-0.258-0.706-0.391-1.062c-0.02-0.052-0.039-0.104-0.059-0.156
	c-0.133-0.357-0.27-0.715-0.408-1.076c-0.006-0.015-0.012-0.031-0.018-0.046c-0.151-0.39-0.303-0.782-0.459-1.178
	c-0.072-0.18-0.144-0.363-0.217-0.546c-0.092-0.229-0.183-0.458-0.278-0.689c-0.078-0.196-0.16-0.393-0.241-0.589
	c-0.077-0.191-0.157-0.382-0.235-0.573c-0.102-0.247-0.204-0.494-0.309-0.743c-0.048-0.116-0.098-0.233-0.147-0.349
	c-0.165-0.39-0.333-0.781-0.502-1.175c-0.094-0.218-0.19-0.437-0.285-0.655c-0.081-0.186-0.161-0.372-0.243-0.558
	c-0.104-0.239-0.212-0.479-0.319-0.72c-0.068-0.153-0.135-0.307-0.203-0.46c-0.127-0.284-0.255-0.568-0.385-0.854
	c-0.024-0.052-0.047-0.104-0.071-0.157c-26.181-57.674-103.833-156.925-206.269-259.176
	c-36.845-36.778-73.294-70.348-107.552-99.477c-8.273,1.827-16.87,2.792-25.692,2.792c-60.944,0-111.153-45.952-117.873-105.098
	c-21.243-10.648-37.738-15.321-47.901-12.924c-2.909,0.647-5.259,1.9-7.082,3.727c-1.824,1.826-3.04,4.209-3.713,7.088
	c-8.887,38.244,82.336,165.905,215.276,298.602c100.858,100.675,198.765,177.329,256.845,204.564
	c0.055,0.026,0.11,0.052,0.163,0.077c1.287,0.602,2.555,1.18,3.802,1.734c0.136,0.06,0.271,0.121,0.407,0.18
	c0.602,0.265,1.2,0.527,1.793,0.78c0.018,0.008,0.035,0.016,0.052,0.023c0.28,0.119,0.556,0.236,0.832,0.353
	c0.124,0.051,0.249,0.104,0.371,0.156c0.276,0.116,0.552,0.231,0.827,0.345c0.063,0.026,0.126,0.051,0.189,0.077
	c0.463,0.191,0.924,0.377,1.382,0.561c0.196,0.079,0.392,0.158,0.589,0.236c0.199,0.079,0.398,0.156,0.595,0.233
	c0.206,0.082,0.413,0.161,0.618,0.241c0.173,0.067,0.346,0.132,0.517,0.199c0.379,0.144,0.757,0.287,1.131,0.427
	c0.034,0.013,0.07,0.026,0.105,0.039c0.327,0.121,0.652,0.241,0.975,0.357c0.046,0.017,0.092,0.033,0.137,0.05
	c0.933,0.336,1.852,0.654,2.756,0.955c0.123,0.041,0.246,0.083,0.368,0.123c0.246,0.08,0.489,0.16,0.731,0.237
	c0.141,0.045,0.281,0.09,0.422,0.134c0.231,0.073,0.463,0.147,0.693,0.219c0.247,0.075,0.492,0.149,0.737,0.223
	c0.237,0.071,0.471,0.14,0.705,0.208c0.247,0.073,0.495,0.145,0.741,0.215c0.144,0.041,0.286,0.08,0.429,0.12
	c0.257,0.071,0.511,0.14,0.763,0.207c0.12,0.032,0.241,0.065,0.36,0.097c0.369,0.098,0.735,0.192,1.098,0.282
	c0.069,0.018,0.14,0.035,0.209,0.052c0.338,0.083,0.673,0.162,1.005,0.24c0.094,0.022,0.187,0.042,0.281,0.064
	c0.323,0.073,0.646,0.146,0.966,0.212c0.036,0.008,0.071,0.015,0.107,0.022c0.714,0.15,1.417,0.285,2.107,0.404
	c0.021,0.004,0.043,0.009,0.065,0.012c0.285,0.049,0.568,0.094,0.849,0.138c0.122,0.02,0.245,0.039,0.368,0.057
	c0.259,0.039,0.514,0.076,0.77,0.109c0.146,0.02,0.292,0.038,0.437,0.056c0.236,0.03,0.47,0.059,0.7,0.084
	c0.177,0.02,0.351,0.036,0.526,0.054c0.345,0.034,0.687,0.063,1.024,0.088c0.202,0.015,0.403,0.031,0.602,0.043
	c0.191,0.012,0.378,0.018,0.566,0.027c0.182,0.007,0.365,0.016,0.546,0.021c0.182,0.005,0.362,0.008,0.541,0.01
	c0.183,0.003,0.364,0.004,0.544,0.003c0.168,0,0.335,0,0.5-0.004c0.213-0.003,0.422-0.011,0.632-0.02
	c0.13-0.005,0.263-0.007,0.391-0.014c0.323-0.017,0.64-0.04,0.954-0.067c0.12-0.011,0.238-0.025,0.359-0.037
	c0.205-0.021,0.411-0.043,0.612-0.069c0.132-0.016,0.263-0.036,0.394-0.054c0.193-0.028,0.385-0.059,0.575-0.09
	c0.12-0.021,0.241-0.041,0.359-0.064c0.21-0.04,0.417-0.083,0.62-0.128c0.092-0.02,0.186-0.039,0.278-0.06
	c0.291-0.068,0.576-0.141,0.856-0.221c0.063-0.018,0.125-0.039,0.188-0.057c0.222-0.065,0.44-0.135,0.655-0.208
	c0.088-0.029,0.174-0.062,0.26-0.092c0.189-0.068,0.376-0.138,0.56-0.213c0.086-0.034,0.172-0.07,0.259-0.106
	c0.193-0.081,0.384-0.169,0.574-0.258c0.063-0.03,0.127-0.058,0.19-0.089c0.253-0.124,0.501-0.253,0.743-0.391
	c0.004-0.002,0.008-0.004,0.012-0.006c0.231-0.131,0.457-0.271,0.679-0.415c0.063-0.041,0.126-0.084,0.189-0.127
	c0.163-0.11,0.324-0.224,0.481-0.34c0.065-0.048,0.131-0.097,0.195-0.147c0.162-0.126,0.322-0.255,0.478-0.388
	c0.048-0.042,0.098-0.082,0.145-0.124c0.203-0.179,0.402-0.362,0.593-0.553c0.195-0.196,0.382-0.399,0.564-0.607
	c0.041-0.046,0.077-0.094,0.117-0.14c0.138-0.162,0.272-0.327,0.402-0.496c0.052-0.066,0.1-0.136,0.15-0.203
	c0.114-0.154,0.223-0.31,0.331-0.47c0.052-0.076,0.101-0.153,0.151-0.23c0.102-0.159,0.202-0.323,0.297-0.488
	c0.046-0.08,0.093-0.16,0.138-0.24c0.097-0.174,0.188-0.351,0.279-0.531c0.036-0.074,0.074-0.148,0.111-0.224
	c0.11-0.23,0.216-0.466,0.316-0.706c0.01-0.025,0.022-0.048,0.033-0.074c0.114-0.276,0.221-0.56,0.32-0.849
	c0.009-0.028,0.018-0.056,0.027-0.084c0.086-0.254,0.168-0.513,0.243-0.776c0.024-0.081,0.044-0.165,0.068-0.246
	c0.058-0.21,0.113-0.421,0.164-0.637c0.025-0.109,0.049-0.219,0.073-0.328c0.043-0.196,0.084-0.395,0.122-0.595
	c0.023-0.122,0.045-0.243,0.065-0.365c0.034-0.197,0.064-0.397,0.093-0.598c0.018-0.125,0.036-0.25,0.054-0.377
	c0.026-0.219,0.049-0.441,0.073-0.664c0.011-0.112,0.024-0.222,0.034-0.337c0.025-0.29,0.044-0.586,0.06-0.884
	c0.003-0.051,0.006-0.099,0.009-0.151c0.017-0.342,0.026-0.691,0.032-1.043c0.001-0.142,0-0.289,0-0.433
	C1202.082,1235.607,1202.082,1235.389,1202.078,1235.166z"/>
<path style="fill:#971005;" d="M1037.031,1006.603c-17.097,39.06-39.027,74.14-64.19,107.512
	c77.954,69.207,147.422,118.233,188.955,133.665c0.034,0.013,0.07,0.026,0.105,0.039c0.327,0.121,0.652,0.241,0.975,0.357
	c0.046,0.017,0.092,0.033,0.137,0.05c0.933,0.336,1.852,0.654,2.756,0.955c0.123,0.041,0.246,0.083,0.368,0.123
	c0.246,0.08,0.489,0.16,0.731,0.237c0.141,0.045,0.281,0.09,0.422,0.134c0.231,0.073,0.463,0.147,0.693,0.219
	c0.247,0.075,0.492,0.149,0.737,0.223c0.237,0.071,0.471,0.14,0.705,0.208c0.247,0.073,0.495,0.145,0.741,0.215
	c0.144,0.041,0.286,0.08,0.429,0.12c0.257,0.071,0.511,0.14,0.763,0.207c0.12,0.032,0.241,0.065,0.36,0.097
	c0.369,0.098,0.735,0.192,1.098,0.282c0.069,0.018,0.14,0.035,0.209,0.052c0.338,0.083,0.673,0.162,1.005,0.24
	c0.094,0.022,0.187,0.042,0.281,0.064c0.323,0.073,0.646,0.146,0.966,0.212c0.036,0.008,0.071,0.015,0.107,0.022
	c0.714,0.15,1.417,0.285,2.107,0.404c0.021,0.004,0.043,0.009,0.065,0.012c0.285,0.049,0.568,0.094,0.849,0.138
	c0.122,0.02,0.245,0.039,0.368,0.057c0.259,0.039,0.514,0.076,0.77,0.109c0.146,0.02,0.292,0.038,0.437,0.056
	c0.236,0.03,0.47,0.059,0.7,0.084c0.177,0.02,0.351,0.036,0.526,0.054c0.345,0.034,0.687,0.063,1.024,0.088
	c0.202,0.015,0.403,0.031,0.602,0.043c0.191,0.012,0.378,0.018,0.566,0.027c0.182,0.007,0.365,0.016,0.546,0.021
	c0.182,0.005,0.362,0.008,0.541,0.01c0.183,0.003,0.364,0.004,0.544,0.003c0.168,0,0.335,0,0.5-0.004
	c0.213-0.003,0.422-0.011,0.632-0.02c0.13-0.005,0.263-0.007,0.391-0.014c0.323-0.017,0.64-0.04,0.954-0.067
	c0.12-0.011,0.238-0.025,0.359-0.037c0.205-0.021,0.411-0.043,0.612-0.069c0.132-0.016,0.263-0.036,0.394-0.054
	c0.193-0.028,0.385-0.059,0.575-0.09c0.12-0.021,0.241-0.041,0.359-0.064c0.21-0.04,0.417-0.083,0.62-0.128
	c0.092-0.02,0.186-0.039,0.278-0.06c0.291-0.068,0.576-0.141,0.856-0.221c0.063-0.018,0.125-0.039,0.188-0.057
	c0.222-0.065,0.44-0.135,0.655-0.208c0.088-0.029,0.174-0.062,0.26-0.092c0.189-0.068,0.376-0.138,0.56-0.213
	c0.086-0.034,0.172-0.07,0.259-0.106c0.193-0.081,0.384-0.169,0.574-0.258c0.063-0.03,0.127-0.058,0.19-0.089
	c0.253-0.124,0.501-0.253,0.743-0.391c0.004-0.002,0.008-0.004,0.012-0.006c0.231-0.131,0.457-0.271,0.679-0.415
	c0.063-0.041,0.126-0.084,0.189-0.127c0.163-0.11,0.324-0.224,0.481-0.34c0.065-0.048,0.131-0.097,0.195-0.147
	c0.162-0.126,0.322-0.255,0.478-0.388c0.048-0.042,0.098-0.082,0.145-0.124c0.203-0.179,0.402-0.362,0.593-0.553
	c0.195-0.196,0.382-0.399,0.564-0.607c0.041-0.046,0.077-0.094,0.117-0.14c0.138-0.162,0.272-0.327,0.402-0.496
	c0.052-0.066,0.1-0.136,0.15-0.203c0.114-0.154,0.223-0.31,0.331-0.47c0.052-0.076,0.101-0.153,0.151-0.23
	c0.102-0.159,0.202-0.323,0.297-0.488c0.046-0.08,0.093-0.16,0.138-0.24c0.097-0.174,0.188-0.351,0.279-0.531
	c0.036-0.074,0.074-0.148,0.111-0.224c0.11-0.23,0.216-0.466,0.316-0.706c0.01-0.025,0.022-0.048,0.033-0.074
	c0.114-0.276,0.221-0.56,0.32-0.849c0.009-0.028,0.018-0.056,0.027-0.084c0.086-0.254,0.168-0.513,0.243-0.776
	c0.024-0.081,0.044-0.165,0.068-0.246c0.058-0.21,0.113-0.421,0.164-0.637c0.025-0.109,0.049-0.219,0.073-0.328
	c0.043-0.196,0.084-0.395,0.122-0.595c0.023-0.122,0.045-0.243,0.065-0.365c0.034-0.197,0.064-0.397,0.093-0.598
	c0.018-0.125,0.036-0.25,0.054-0.377c0.026-0.219,0.049-0.441,0.073-0.664c0.011-0.112,0.024-0.222,0.034-0.337
	c0.025-0.29,0.044-0.586,0.06-0.884c0.003-0.051,0.006-0.099,0.009-0.151c0.017-0.342,0.026-0.691,0.032-1.043
	c0.001-0.142,0-0.289,0-0.433c0-0.218,0-0.437-0.004-0.659c-0.004-0.171-0.01-0.346-0.016-0.518
	c-0.006-0.196-0.014-0.391-0.024-0.59c-0.01-0.19-0.022-0.382-0.034-0.576c-0.013-0.191-0.026-0.384-0.042-0.578
	c-0.016-0.196-0.032-0.393-0.051-0.593c-0.017-0.192-0.038-0.388-0.058-0.583c-0.024-0.21-0.044-0.419-0.071-0.632
	c-0.02-0.165-0.043-0.331-0.065-0.497c-0.123-0.946-0.278-1.918-0.465-2.919c-0.013-0.071-0.025-0.14-0.038-0.211
	c-0.06-0.315-0.125-0.636-0.192-0.957c-0.022-0.111-0.045-0.222-0.068-0.335c-0.066-0.313-0.137-0.63-0.209-0.949
	c-0.028-0.117-0.054-0.235-0.081-0.354c-0.076-0.328-0.154-0.659-0.237-0.992l-0.078-0.316c-0.089-0.353-0.179-0.707-0.275-1.065
	l-0.047-0.173c-0.101-0.375-0.205-0.754-0.313-1.136c-0.042-0.146-0.085-0.293-0.127-0.439c-0.066-0.231-0.133-0.462-0.202-0.695
	c-0.057-0.193-0.118-0.389-0.177-0.585c-0.054-0.178-0.108-0.356-0.164-0.534c-0.071-0.23-0.144-0.461-0.217-0.693
	c-0.045-0.142-0.092-0.285-0.137-0.428c-0.082-0.254-0.164-0.509-0.248-0.765c-0.028-0.087-0.06-0.176-0.089-0.263
	c-0.34-1.022-0.701-2.063-1.088-3.122l-0.006-0.019c-0.127-0.352-0.258-0.706-0.391-1.062c-0.02-0.052-0.039-0.104-0.059-0.156
	c-0.133-0.357-0.27-0.715-0.408-1.076c-0.006-0.015-0.012-0.031-0.018-0.046c-17.748-46.103-75.69-125.39-156.156-212.346
	C1039.15,1001.508,1038.14,1004.067,1037.031,1006.603z"/>
<path style="fill:#0069B3;" d="M1544.718,241.199l-476.06,225.019c21.629-0.318,51.321,20.372,84.783,56.859
	c0,0.001,0,0.001,0.001,0.002c0.9,0.982,1.802,1.973,2.707,2.978c0.157,0.175,0.316,0.349,0.473,0.523
	c0.209,0.234,0.42,0.468,0.629,0.702c0.213,0.238,0.428,0.477,0.641,0.717c0.17,0.19,0.339,0.379,0.508,0.57
	c21.927,24.652,45.349,55.834,69.1,92.13l0.032-0.014l453.677-214.441c116.332-54.987,241.507-68.863,359.17-47.375
	C1925.656,211.615,1720.464,158.129,1544.718,241.199z"/>
<path style="fill:#0069B3;" d="M620.518,431.318v-10.62h-54.82v21.555c-14.35,7.957-26.353,19.636-34.702,33.734h-20.588v54.821
	h8.135c4.038,47.128,43.571,84.122,91.747,84.122c50.859,0,92.088-41.229,92.088-92.087
	C702.377,475.441,666.562,436.406,620.518,431.318z"/>
<path style="fill:#0069B3;" d="M872.687,671.031v-7.957H831.61v16.152c-10.753,5.963-19.746,14.713-26.002,25.277H790.18v41.078
	h6.096c3.026,35.315,32.649,63.034,68.747,63.034c7.203,0,14.146-1.104,20.674-3.151l0.019-0.006
	c27.999-8.79,48.31-34.946,48.31-65.846C934.026,704.093,907.189,674.843,872.687,671.031z"/>
<path style="fill:#0069B3;" d="M1514.311,1263.317v-6.7h-34.571v13.597c-9.047,5.018-16.614,12.381-21.877,21.27h-12.989v34.571
	h5.134c2.548,29.719,27.474,53.048,57.853,53.048c32.073,0,58.072-26,58.072-58.072
	C1565.933,1291.14,1543.347,1266.526,1514.311,1263.317z"/>
<path style="fill:#0069B3;" d="M881.612,1122.919v-6.701h-34.571v13.596c-9.047,5.018-16.614,12.381-21.878,21.27h-12.988v34.571
	h5.134c2.547,29.72,27.473,53.048,57.853,53.048c32.072,0,58.072-26,58.072-58.072
	C933.234,1150.74,910.648,1126.127,881.612,1122.919z"/>
<path style="fill:#0069B3;" d="M1300.448,1380.635v-7.958h-41.079v16.153c-10.752,5.962-19.746,14.712-26.001,25.276h-15.428v41.078
	h6.095c3.026,35.315,32.649,63.034,68.748,63.034c38.109,0,69.002-30.893,69.002-69.003
	C1361.785,1413.697,1334.949,1384.448,1300.448,1380.635z"/>
<path style="fill:#0069B3;" d="M939.611,275.32v-10.292h-53.127v20.89c-13.907,7.712-25.538,19.03-33.629,32.692h-19.954v53.128
	h7.886c3.913,45.673,42.225,81.524,88.912,81.524c49.287,0,89.244-39.956,89.244-89.244
	C1018.943,318.081,984.234,280.251,939.611,275.32z"/>
<polygon style="fill:#F3DDBE;" points="565.698,420.698 565.698,475.987 510.408,475.987 510.408,530.808 565.698,530.808 
	565.698,586.098 620.518,586.098 620.518,530.808 675.808,530.808 675.808,475.987 620.518,475.987 620.518,420.698 "/>
<polygon style="fill:#F3DDBE;" points="790.18,745.58 831.61,745.58 831.61,787.01 872.687,787.01 872.687,745.58 914.118,745.58 
	914.118,704.502 872.687,704.502 872.687,663.074 831.61,663.074 831.61,704.502 790.18,704.502 "/>
<polygon style="fill:#F3DDBE;" points="1479.74,1360.92 1514.311,1360.92 1514.311,1326.054 1549.178,1326.054 1549.178,1291.483 
	1514.311,1291.483 1514.311,1256.616 1479.74,1256.616 1479.74,1291.483 1444.874,1291.483 1444.874,1326.054 1479.74,1326.054 "/>
<polygon style="fill:#F3DDBE;" points="847.042,1220.521 881.612,1220.521 881.612,1185.655 916.479,1185.655 916.479,1151.084 
	881.612,1151.084 881.612,1116.218 847.042,1116.218 847.042,1151.084 812.175,1151.084 812.175,1185.655 847.042,1185.655 "/>
<polygon style="fill:#F3DDBE;" points="1259.369,1496.614 1300.448,1496.614 1300.448,1455.184 1341.877,1455.184 
	1341.877,1414.106 1300.448,1414.106 1300.448,1372.677 1259.369,1372.677 1259.369,1414.106 1217.94,1414.106 1217.94,1455.184 
	1259.369,1455.184 "/>
<polygon style="fill:#F3DDBE;" points="886.484,265.028 886.484,318.61 832.901,318.61 832.901,371.738 886.484,371.738 
	886.484,425.32 939.611,425.32 939.611,371.738 993.194,371.738 993.194,318.61 939.611,318.61 939.611,265.028 "/>
</svg>
