<svg width="12" height="12" viewBox="0 0 12 12" fill="none" xmlns="http://www.w3.org/2000/svg">
<path d="M9.85577 0.364807C10.3421 -0.121602 11.1492 -0.121602 11.6356 0.364807C12.1214 0.85117 12.1215 1.65729 11.6356 2.14358L7.77875 5.99952L11.6344 9.85546C12.1208 10.3419 12.1208 11.149 11.6344 11.6354C11.1481 12.1215 10.3421 12.1215 9.85577 11.6354L5.99894 7.7783L2.14442 11.6342C1.65804 12.1206 0.852126 12.1206 0.365771 11.6342C-0.120453 11.1478 -0.120502 10.3418 0.365771 9.85546L4.22029 5.99952L0.364614 2.14474C-0.121562 1.65838 -0.121514 0.851193 0.364614 0.364807C0.850945 -0.121558 1.65803 -0.121471 2.14442 0.364807L6.0001 4.22075L9.85577 0.364807Z" fill="#999999"/>
</svg>
