<svg width="18" height="20" viewBox="0 0 18 20" fill="none" xmlns="http://www.w3.org/2000/svg">
<path d="M2.05714 15.9485V4.61539H0.771429C0.34538 4.61539 0 4.27099 0 3.84616C0 3.42132 0.34538 3.07692 0.771429 3.07692H4.12132C4.1244 2.93074 4.12688 2.79547 4.13538 2.67128C4.15763 2.34633 4.20571 2.03938 4.32924 1.74179C4.61618 1.05102 5.16663 0.500751 5.86004 0.214345C6.15874 0.0909799 6.46702 0.0432224 6.79319 0.0210361C7.11248 -0.000681793 7.50273 2.41431e-06 7.97143 2.41431e-06H10.0286C10.4973 2.41431e-06 10.8876 -0.000682842 11.2068 0.0210361C11.5329 0.0432302 11.8413 0.0909943 12.14 0.214345C12.8332 0.500727 13.3838 1.05098 13.6708 1.74179C13.7943 2.03934 13.8423 2.34629 13.8646 2.67128C13.8731 2.79549 13.8756 2.93071 13.8787 3.07692H17.2286C17.6546 3.07692 18 3.42132 18 3.84616C18 4.27099 17.6546 4.61539 17.2286 4.61539H15.9429V15.9515C15.9429 16.5121 15.9439 16.9797 15.9127 17.3598C15.8808 17.7488 15.8111 18.114 15.6345 18.4595C15.3633 18.9903 14.9299 19.4222 14.398 19.6925C14.0515 19.8685 13.6851 19.9381 13.2951 19.9699C12.9139 20.001 12.445 20 11.8828 20H6.11719C5.55498 20 5.08625 20.001 4.70491 19.9699C4.31464 19.9381 3.94768 19.8686 3.601 19.6925C3.06828 19.4217 2.63629 18.9894 2.36551 18.4595C2.18882 18.1137 2.11922 17.7482 2.08728 17.3588C2.05609 16.9782 2.05714 16.5102 2.05714 15.9485ZM6.17143 15.1282V7.94872C6.17143 7.52388 6.51681 7.17949 6.94286 7.17949C7.36891 7.17949 7.71429 7.52388 7.71429 7.94872V15.1282C7.71429 15.553 7.36891 15.8974 6.94286 15.8974C6.51681 15.8974 6.17143 15.553 6.17143 15.1282ZM10.2857 15.1282V7.94872C10.2857 7.52388 10.6311 7.17949 11.0571 7.17949C11.4832 7.17949 11.8286 7.52388 11.8286 7.94872V15.1282C11.8286 15.553 11.4832 15.8974 11.0571 15.8974C10.6311 15.8974 10.2857 15.553 10.2857 15.1282ZM7.97143 1.53846C7.48189 1.53846 7.15321 1.5392 6.89866 1.55649C6.6512 1.57332 6.53 1.60289 6.45067 1.63562C6.13604 1.76557 5.88523 2.01534 5.75458 2.32973C5.72169 2.40889 5.69211 2.52964 5.67522 2.77644C5.66909 2.86609 5.66681 2.96499 5.66417 3.07692H12.3358C12.3332 2.96499 12.3309 2.86608 12.3248 2.77644C12.3079 2.52966 12.2773 2.40894 12.2444 2.32973C12.1138 2.0156 11.864 1.76557 11.5493 1.63562C11.47 1.60284 11.3489 1.57334 11.1013 1.55649C10.8468 1.53919 10.5182 1.53846 10.0286 1.53846H7.97143ZM3.6 15.9485C3.6 16.5356 3.60025 16.9302 3.62511 17.2336C3.64924 17.5276 3.69316 17.6685 3.74063 17.7614C3.86425 18.0031 4.06101 18.1998 4.30212 18.3223C4.39503 18.3694 4.53604 18.4125 4.83047 18.4365C5.13439 18.4613 5.52954 18.4615 6.11719 18.4615H11.8828C12.4702 18.4615 12.8649 18.4612 13.1685 18.4365C13.4632 18.4125 13.6049 18.3696 13.6979 18.3223C13.9398 18.1993 14.1372 18.0023 14.2604 17.7614C14.3078 17.6687 14.3508 17.5274 14.3749 17.2336C14.3997 16.9307 14.4 16.5372 14.4 15.9515V4.61539H3.6V15.9485Z" fill="#666666"/>
</svg>
