<svg width="20" height="20" viewBox="0 0 20 20" fill="none" xmlns="http://www.w3.org/2000/svg">
<path d="M11.7999 14.7179H8.20005V14.9231C8.20005 15.9427 9.00592 16.7692 10 16.7692C10.9941 16.7692 11.7999 15.9427 11.7999 14.9231V14.7179ZM5.00015 11.4135C5.0001 11.7228 4.88007 12.019 4.66735 12.2372L4.35564 12.5569C4.30575 12.6081 4.27774 12.637 4.2572 12.6595C4.24428 12.6736 4.23903 12.6801 4.23767 12.6819C4.21994 12.7072 4.20757 12.7368 4.20252 12.7684C4.20225 12.7708 4.20153 12.7793 4.20096 12.7981C4.20001 12.829 4.20017 12.8697 4.20017 12.9423C4.20017 13.1074 4.20002 13.206 4.20408 13.2796C4.20791 13.3487 4.21379 13.3583 4.21033 13.3478C4.23019 13.4082 4.27687 13.4562 4.33611 13.4768C4.32618 13.4734 4.33573 13.4793 4.40173 13.4832C4.47277 13.4873 4.56789 13.4872 4.7275 13.4872H15.2725C15.432 13.4872 15.5271 13.4873 15.5983 13.4832C15.6654 13.4793 15.6744 13.4731 15.6639 13.4768C15.7223 13.4566 15.7687 13.4092 15.7889 13.3478C15.7902 13.3403 15.7929 13.3202 15.7951 13.2796C15.7992 13.206 15.7998 13.1074 15.7998 12.9423C15.7998 12.8698 15.7992 12.8288 15.7983 12.7981C15.7976 12.7785 15.797 12.7705 15.7967 12.7684C15.7914 12.7355 15.7793 12.7061 15.7623 12.6819C15.7608 12.6799 15.7557 12.6735 15.7436 12.6603C15.7228 12.6376 15.6944 12.6082 15.6444 12.5569L15.3327 12.2372C15.1197 12.0187 14.9999 11.7224 14.9998 11.4135V8.35897C14.9998 5.52674 12.7613 3.23076 10 3.23077C7.23866 3.23078 5.00015 5.52675 5.00015 8.35897V11.4135ZM16.1998 11.3862L16.4928 11.6867C16.5739 11.7699 16.6642 11.8595 16.7373 11.9639C16.8641 12.145 16.9464 12.3525 16.981 12.5689C17.0013 12.6956 16.9998 12.8227 16.9998 12.9423C16.9998 13.209 17.0077 13.4938 16.9264 13.7412C16.7869 14.1652 16.4625 14.4991 16.0475 14.6426C15.8671 14.705 15.6663 14.7163 15.4686 14.7179H12.9999V14.9231C12.9999 16.6224 11.6568 18 10 18C8.3432 18 7.00009 16.6224 7.00009 14.9231V14.7179H4.5322C4.3344 14.7163 4.13387 14.705 3.95331 14.6426C3.53933 14.4994 3.21344 14.1662 3.07365 13.7412C2.99228 13.4938 3.00021 13.209 3.00021 12.9423C3.00021 12.8239 2.99864 12.6959 3.01896 12.5689C3.05383 12.3511 3.13672 12.1439 3.2627 11.9639C3.33573 11.8596 3.42499 11.7711 3.50723 11.6867L3.80019 11.3862V8.35897C3.80019 4.84701 6.57595 2.00001 10 2C13.4241 1.99999 16.1998 4.84701 16.1998 8.35897V11.3862Z" fill="#666666"/>
</svg>
