<svg width="20" height="20" viewBox="0 0 20 20" fill="none" xmlns="http://www.w3.org/2000/svg">
<path d="M6.57143 14.3884V14.3429C6.57143 13.9641 6.87843 13.6571 7.25714 13.6571C7.63585 13.6571 7.94286 13.9641 7.94286 14.3429V14.3884C7.94286 14.9118 7.94308 15.2635 7.96518 15.5339C7.98663 15.7961 8.02567 15.9217 8.06786 16.0045C8.17774 16.2199 8.35265 16.3953 8.56696 16.5045C8.64954 16.5465 8.77489 16.5848 9.03661 16.6062C9.30676 16.6283 9.658 16.6286 10.1804 16.6286H14.3911C14.9132 16.6286 15.264 16.6283 15.5339 16.6062C15.7958 16.5848 15.9218 16.5466 16.0045 16.5045C16.2197 16.3947 16.3951 16.2191 16.5045 16.0045C16.5466 15.9218 16.5848 15.7965 16.6062 15.5348C16.6283 15.2649 16.6286 14.9143 16.6286 14.392V5.60893C16.6286 5.08658 16.6283 4.73534 16.6062 4.46518C16.5848 4.20347 16.5465 4.07812 16.5045 3.99554C16.3954 3.78141 16.22 3.6064 16.0045 3.49643C15.9216 3.45423 15.7959 3.4152 15.5339 3.39375C15.2636 3.37165 14.9118 3.37143 14.3884 3.37143H10.183C9.65968 3.37143 9.30812 3.37165 9.0375 3.39375C8.77499 3.4152 8.64971 3.45428 8.56696 3.49643C8.35192 3.606 8.17743 3.7805 8.06786 3.99554C8.02571 4.07828 7.98663 4.20357 7.96518 4.46607C7.94307 4.7367 7.94286 5.08825 7.94286 5.61161V5.65625C7.94264 6.03478 7.63572 6.34197 7.25714 6.34197C6.87857 6.34197 6.57164 6.03478 6.57143 5.65625V5.61161C6.57143 5.11087 6.57049 4.69387 6.59821 4.35447C6.62659 4.00714 6.68841 3.68069 6.84553 3.37232C7.08655 2.89944 7.47087 2.51513 7.94375 2.27411C8.25212 2.11699 8.57856 2.05516 8.92589 2.02679C9.26529 1.99907 9.68229 2 10.183 2H14.3884C14.8891 2 15.3064 1.99906 15.6455 2.02679C15.9927 2.05519 16.3186 2.11707 16.6268 2.27411C17.099 2.51473 17.4845 2.8987 17.7259 3.37232C17.8829 3.68048 17.9449 4.00667 17.9732 4.35357C18.0009 4.69254 18 5.10919 18 5.60893V14.392C18 14.8916 18.0009 15.3077 17.9732 15.6464C17.9449 15.9932 17.8828 16.3187 17.7259 16.6268C17.4847 17.1002 17.0994 17.485 16.6268 17.7259C16.3188 17.8828 15.9931 17.9448 15.6464 17.9732C15.3076 18.0009 14.8908 18 14.3911 18H10.1804C9.68062 18 9.26396 18.0009 8.925 17.9732C8.57809 17.9449 8.2519 17.8829 7.94375 17.7259C7.47021 17.4845 7.08622 17.0992 6.84553 16.6268C6.68848 16.3185 6.62661 15.9927 6.59821 15.6455C6.57049 15.3063 6.57143 14.8891 6.57143 14.3884ZM9.51518 6.77232C9.76624 6.52126 10.1637 6.50529 10.433 6.725L10.4848 6.77232L13.2277 9.51518C13.4955 9.78297 13.4955 10.217 13.2277 10.4848L10.4848 13.2277C10.217 13.4955 9.78297 13.4955 9.51518 13.2277C9.24739 12.9599 9.24739 12.5258 9.51518 12.258L11.0875 10.6857H2.68571C2.307 10.6857 2 10.3787 2 10C2 9.62129 2.307 9.31429 2.68571 9.31429H11.0875L9.51518 7.74197L9.46786 7.69018C9.24814 7.42085 9.26411 7.02339 9.51518 6.77232Z" fill="#666666"/>
</svg>
