<svg width="8" height="5" viewBox="0 0 8 5" fill="none" xmlns="http://www.w3.org/2000/svg">
<path d="M0.492047 4.27489e-06H6.81205C6.90923 -0.00020262 7.00428 0.0284947 7.08512 0.0824475C7.16595 0.1364 7.22891 0.213172 7.266 0.303001C7.30309 0.39283 7.31263 0.49166 7.29341 0.586925C7.27419 0.68219 7.22707 0.769587 7.15805 0.838005L3.99905 4C3.95329 4.04632 3.89878 4.0831 3.8387 4.1082C3.77862 4.1333 3.71416 4.14622 3.64905 4.14622C3.58393 4.14622 3.51947 4.1333 3.45939 4.1082C3.39931 4.0831 3.34481 4.04632 3.29905 4L0.145047 0.838005C0.0759636 0.769527 0.0288244 0.682038 0.00963247 0.586679C-0.00955947 0.49132 6.42724e-05 0.392407 0.0372781 0.302536C0.0744919 0.212666 0.137612 0.135904 0.218599 0.0820279C0.299586 0.0281515 0.394777 -0.000401949 0.492047 4.27489e-06Z" fill="#333333"/>
</svg>
