<svg width="18" height="20" viewBox="0 0 18 20" fill="none" xmlns="http://www.w3.org/2000/svg">
<path d="M4.38462 9.76744H7.15385C7.53231 9.76744 7.84615 9.45116 7.84615 9.06977C7.84615 8.68837 7.53231 8.37209 7.15385 8.37209H4.38462C4.00615 8.37209 3.69231 8.68837 3.69231 9.06977C3.69231 9.45116 4.00615 9.76744 4.38462 9.76744Z" fill="#666666"/>
<path fill-rule="evenodd" clip-rule="evenodd" d="M4.61538 16.2791V16.5116C4.61538 18.7628 5.84308 20 8.07692 20H9.92308C12.1569 20 13.3846 18.7628 13.3846 16.5116V16.2791H14.5385C16.7723 16.2791 18 15.0419 18 12.7907V8.13953C18 5.88837 16.7723 4.65116 14.5385 4.65116H14.0769V3.48837C14.0769 1.10698 12.9785 0 10.6154 0H7.38462C5.02154 0 3.92308 1.10698 3.92308 3.48837V4.65116H3.46154C1.22769 4.65116 0 5.88837 0 8.13953V12.7907C0 15.0419 1.22769 16.2791 3.46154 16.2791H4.61538ZM3.46154 6.04651C2.00308 6.04651 1.38462 6.66977 1.38462 8.13953V12.7907C1.38462 14.2605 2.00308 14.8837 3.46154 14.8837H4.61538V13.4884H4.38462C4.00615 13.4884 3.69231 13.1721 3.69231 12.7907C3.69231 12.4093 4.00615 12.093 4.38462 12.093H13.6154C13.9938 12.093 14.3077 12.4093 14.3077 12.7907C14.3077 13.1721 13.9938 13.4884 13.6154 13.4884H13.3846V14.8837H14.5385C15.9969 14.8837 16.6154 14.2605 16.6154 12.7907V8.13953C16.6154 6.66977 15.9969 6.04651 14.5385 6.04651H3.46154ZM6 13.4884H12V16.5116C12 17.9814 11.3815 18.6047 9.92308 18.6047H8.07692C6.61846 18.6047 6 17.9814 6 16.5116V13.4884ZM5.30769 4.65116H12.6923V3.48837C12.6923 1.90698 12.1846 1.39535 10.6154 1.39535H7.38462C5.81538 1.39535 5.30769 1.90698 5.30769 3.48837V4.65116Z" fill="#666666"/>
</svg>
