<svg width="20" height="20" viewBox="0 0 20 20" fill="none" xmlns="http://www.w3.org/2000/svg">
<path d="M8.96431 0.23185C9.34118 0.23185 9.65373 0.544577 9.65387 0.921436C9.65387 1.29841 9.34127 1.61102 8.96431 1.61102H7.12548C2.88705 1.61102 1.37919 3.11911 1.37912 7.35758V12.8743C1.37912 17.1129 2.88697 18.6208 7.12548 18.6208H12.642C16.8805 18.6208 18.3883 17.1129 18.3883 12.8743V11.0354C18.3885 10.6585 18.701 10.3458 19.0779 10.3458C19.4548 10.3458 19.7673 10.6585 19.7675 11.0354V12.8743C19.7675 17.8669 17.6344 20 12.642 20H7.12548C2.13305 20 0 17.8669 0 12.8743V7.35758C7.28024e-05 2.36515 2.13313 0.23185 7.12548 0.23185H8.96431Z" fill="#666666"/>
<path fill-rule="evenodd" clip-rule="evenodd" d="M13.1107 1.37218C14.9402 -0.457458 16.7976 -0.45733 18.6272 1.37218C19.6293 2.37438 20.0803 3.39547 19.9883 4.41606C19.9055 5.24343 19.4637 6.05252 18.6272 6.8799L17.609 7.89811C17.598 7.91025 17.5858 7.92101 17.574 7.93223L11.3823 14.125C11.0053 14.502 10.3155 14.8515 9.78227 14.9251L7.01504 15.3201C6.89556 15.3477 6.77606 15.348 6.66577 15.348C6.10495 15.348 5.58996 15.1456 5.21302 14.7778C4.76256 14.3273 4.56958 13.6743 4.67071 12.9847L5.06577 10.2174C5.13932 9.68411 5.48881 8.99431 5.86577 8.61733L12.0198 2.46223C12.0562 2.41529 12.0983 2.37247 12.1464 2.33563L13.1107 1.37218ZM6.84085 9.59245C6.66617 9.76713 6.46373 10.1714 6.42694 10.4104L6.03187 13.1778C5.9951 13.4444 6.05019 13.6657 6.1881 13.8036C6.32604 13.9412 6.54662 13.9966 6.81302 13.9598L9.58025 13.5639C9.81929 13.5271 10.2336 13.3255 10.3991 13.1508L15.8501 7.69788C14.2856 6.97376 13.0158 5.705 12.2918 4.14041L6.84085 9.59245ZM17.644 2.33742C16.1729 0.866305 15.1615 1.28074 14.0857 2.3473L13.3468 3.08537C13.9401 4.7352 15.2572 6.04966 16.9086 6.63926L17.644 5.90478C18.2414 5.30728 18.5543 4.77418 18.6002 4.27778C18.6554 3.68015 18.3427 3.04539 17.644 2.33742Z" fill="#666666"/>
</svg>
