<svg width="12" height="12" viewBox="0 0 12 12" fill="none" xmlns="http://www.w3.org/2000/svg">
<path d="M8.5332 4.78122C8.5332 2.70895 6.85345 1.02873 4.78122 1.02856C2.70885 1.02856 1.02856 2.70885 1.02856 4.78122C1.02873 6.85345 2.70895 8.5332 4.78122 8.5332C6.85335 8.53304 8.53304 6.85335 8.5332 4.78122ZM9.56177 4.78122C9.5617 5.91601 9.16497 6.95734 8.50441 7.77718L11.8493 11.122L11.8847 11.1609C12.0495 11.3629 12.0375 11.661 11.8493 11.8493C11.661 12.0375 11.3629 12.0495 11.1609 11.8847L11.122 11.8493L7.77718 8.50441C6.95734 9.16497 5.91601 9.5617 4.78122 9.56177C2.14089 9.56177 0.00016082 7.42151 0 4.78122C0 2.14079 2.14079 0 4.78122 0C7.42151 0.000160822 9.56177 2.14089 9.56177 4.78122Z" fill="#999999"/>
</svg>
